<?xml version="1.0" standalone="no"?><!DOCTYPE svg PUBLIC "-//W3C//DTD SVG 1.1//EN" "http://www.w3.org/Graphics/SVG/1.1/DTD/svg11.dtd"><svg stroke-width="1.5" viewBox="0 0 20 20" fill="#FFFFFF" aria-hidden="true" version="1.1" xmlns="http://www.w3.org/2000/svg" xmlns:xlink="http://www.w3.org/1999/xlink"><path fill-rule="evenodd" d="M5.5 3A2.5 2.5 0 0 0 3 5.5v2.879a2.5 2.5 0 0 0 .732 1.767l6.5 6.5a2.5 2.5 0 0 0 3.536 0l2.878-2.878a2.5 2.5 0 0 0 0-3.536l-6.5-6.5A2.5 2.5 0 0 0 8.38 3H5.5zM6 7a1 1 0 1 0 0-2 1 1 0 0 0 0 2z" clip-rule="evenodd"/></svg>