<svg width="360" height="125.509" xmlns="http://www.w3.org/2000/svg">
 <g>
  <title>Layer 1</title>
  <g fill="#000000" id="svg_1">
   <circle stroke="#000000" stroke-width="2" stroke-linecap="round" stroke-linejoin="round" stroke-miterlimit="10" cx="37" cy="31" r="8" id="svg_2"/>
   <circle stroke="#000000" stroke-width="2" stroke-linecap="round" stroke-linejoin="round" stroke-miterlimit="10" cx="53" cy="31" r="3" id="svg_3"/>
   <circle stroke="#000000" stroke-width="2" stroke-linecap="round" stroke-linejoin="round" stroke-miterlimit="10" cx="69" cy="31" r="5.5" id="svg_4"/>
   <circle stroke="#000000" stroke-width="2" stroke-linecap="round" stroke-linejoin="round" stroke-miterlimit="10" cx="85.001" cy="31" r="3" id="svg_5"/>
   <path stroke="#000000" stroke-width="2" stroke-linecap="round" stroke-linejoin="round" stroke-miterlimit="10" d="m109,31c0,4.42 -3.579,8.003 -8,8.003c-4.417,0 -7.999,-3.583 -7.999,-8.003c0,-4.417 3.582,-8 7.999,-8c4.421,0 8,3.583 8,8z" id="svg_6"/>
   <path stroke="#000000" stroke-width="2" stroke-linecap="round" stroke-linejoin="round" stroke-miterlimit="10" d="m58.5,47.002c0,3.035 -2.463,5.498 -5.501,5.498c-3.036,0 -5.499,-2.463 -5.499,-5.498c0,-3.04 2.463,-5.502 5.499,-5.502c3.039,0 5.501,2.462 5.501,5.502z" id="svg_7"/>
   <circle stroke="#000000" stroke-width="2" stroke-linecap="round" stroke-linejoin="round" stroke-miterlimit="10" cx="69" cy="47" r="2.999" id="svg_8"/>
   <path stroke="#000000" stroke-width="2" stroke-linecap="round" stroke-linejoin="round" stroke-miterlimit="10" d="m90.499,47.002c0,3.035 -2.459,5.498 -5.498,5.498c-3.038,0 -5.503,-2.463 -5.503,-5.498c0,-3.04 2.465,-5.502 5.503,-5.502c3.039,0 5.498,2.462 5.498,5.502z" id="svg_9"/>
   <circle stroke="#000000" stroke-width="2" stroke-linecap="round" stroke-linejoin="round" stroke-miterlimit="10" cx="53" cy="63.001" r="3" id="svg_10"/>
   <circle stroke="#000000" stroke-width="2" stroke-linecap="round" stroke-linejoin="round" stroke-miterlimit="10" cx="69" cy="63.001" r="8.001" id="svg_11"/>
   <circle stroke="#000000" stroke-width="2" stroke-linecap="round" stroke-linejoin="round" stroke-miterlimit="10" cx="85.001" cy="63.001" r="3" id="svg_12"/>
   <path stroke="#000000" stroke-width="2" stroke-linecap="round" stroke-linejoin="round" stroke-miterlimit="10" d="m58.5,79.002c0,3.035 -2.463,5.498 -5.501,5.498c-3.036,0 -5.499,-2.463 -5.499,-5.498c0,-3.041 2.463,-5.502 5.499,-5.502c3.039,0 5.501,2.461 5.501,5.502z" id="svg_13"/>
   <circle stroke="#000000" stroke-width="2" stroke-linecap="round" stroke-linejoin="round" stroke-miterlimit="10" cx="68.999" cy="79" r="3" id="svg_14"/>
   <path stroke="#000000" stroke-width="2" stroke-linecap="round" stroke-linejoin="round" stroke-miterlimit="10" d="m90.499,79.002c0,3.035 -2.459,5.498 -5.498,5.498c-3.038,0 -5.503,-2.463 -5.503,-5.498c0,-3.041 2.465,-5.502 5.503,-5.502c3.039,0 5.498,2.461 5.498,5.502z" id="svg_15"/>
   <path stroke="#000000" stroke-width="2" stroke-linecap="round" stroke-linejoin="round" stroke-miterlimit="10" d="m45,95c0,4.416 -3.583,7.998 -8.001,7.998c-4.42,0 -7.999,-3.582 -7.999,-7.998c0,-4.422 3.579,-7.998 7.999,-7.998c4.419,0 8.001,3.576 8.001,7.998z" id="svg_16"/>
   <circle stroke="#000000" stroke-width="2" stroke-linecap="round" stroke-linejoin="round" stroke-miterlimit="10" cx="53" cy="95" r="3" id="svg_17"/>
   <circle stroke="#000000" stroke-width="2" stroke-linecap="round" stroke-linejoin="round" stroke-miterlimit="10" cx="69" cy="95" r="5.5" id="svg_18"/>
   <circle stroke="#000000" stroke-width="2" stroke-linecap="round" stroke-linejoin="round" stroke-miterlimit="10" cx="85" cy="95" r="2.999" id="svg_19"/>
   <circle stroke="#000000" stroke-width="2" stroke-linecap="round" stroke-linejoin="round" stroke-miterlimit="10" cx="36.999" cy="79" r="3" id="svg_20"/>
   <path stroke="#000000" stroke-width="2" stroke-linecap="round" stroke-linejoin="round" stroke-miterlimit="10" d="m36.999,57.501c3.039,0 5.5,2.46 5.5,5.5c0,3.036 -2.462,5.499 -5.5,5.499c-3.037,0 -5.498,-2.463 -5.498,-5.499c0,-3.04 2.461,-5.5 5.498,-5.5z" id="svg_21"/>
   <circle stroke="#000000" stroke-width="2" stroke-linecap="round" stroke-linejoin="round" stroke-miterlimit="10" cx="36.999" cy="47.001" r="3" id="svg_22"/>
   <circle stroke="#000000" stroke-width="2" stroke-linecap="round" stroke-linejoin="round" stroke-miterlimit="10" cx="101" cy="79" r="3" id="svg_23"/>
   <path stroke="#000000" stroke-width="2" stroke-linecap="round" stroke-linejoin="round" stroke-miterlimit="10" d="m101,57.503c3.039,0 5.503,2.46 5.503,5.498c0,3.036 -2.464,5.499 -5.503,5.499c-3.035,0 -5.498,-2.463 -5.498,-5.499c0,-3.038 2.463,-5.498 5.498,-5.498z" id="svg_24"/>
   <circle stroke="#000000" stroke-width="2" stroke-linecap="round" stroke-linejoin="round" stroke-miterlimit="10" cx="101" cy="47.001" r="2.999" id="svg_25"/>
   <path stroke="#000000" stroke-width="2" stroke-linecap="round" stroke-linejoin="round" stroke-miterlimit="10" d="m109,95c0,4.416 -3.579,8 -8,8c-4.417,0 -7.999,-3.584 -7.999,-8c0,-4.422 3.582,-8 7.999,-8c4.421,0 8,3.578 8,8z" id="svg_26"/>
  </g>
  <g stroke="null" stroke-width="2" fill="#000000" id="svg_27">
   <path stroke="null" d="m148.87642,26.38c5.72576,0 10.53496,1.50677 14.42863,4.5203s6.13801,6.99972 6.73336,11.95794l-10.44358,0c-0.36642,-2.26547 -1.58028,-4.16765 -3.64151,-5.70647s-4.42031,-2.30824 -7.0769,-2.30824c-4.21419,0 -7.48915,1.41059 -9.82521,4.23177s-3.5041,6.64708 -3.5041,11.47706c0,4.70207 1.17951,8.43147 3.53845,11.18853s5.6227,4.13559 9.79086,4.13559c3.11473,0 5.63404,-0.88694 7.55785,-2.66088s3.11473,-4.30646 3.5728,-7.59794l10.44358,0c-0.54966,5.81323 -2.78266,10.38706 -6.69901,13.72118s-8.87498,5.00118 -14.87523,5.00118c-7.19164,0 -13.00844,-2.21206 -17.45177,-6.63618s-6.66465,-10.14149 -6.66465,-17.15147c0,-7.0959 2.19865,-12.89855 6.59594,-17.40794s10.23746,-6.76441 17.52048,-6.76441zm44.11038,1.09l11.4742,31.48177l0.13742,0l10.85583,-31.48177l15.18441,0l0,45.78001l-10.10004,0l0,-32.44354l-0.13742,0l-12.02386,32.44354l-8.31364,0l-12.02386,-32.12295l-0.13742,0l0,32.12295l-10.10004,0l0,-45.78001l15.18441,0zm68.15809,0c6.96216,0 12.4361,2.009 16.42115,6.02706s5.97757,9.55353 5.97757,16.60647c0,7.30941 -2.004,12.99473 -6.01193,17.0553s-9.37861,6.09118 -16.11197,6.09118l-21.2994,0l0,-45.78001l21.02457,0zm-0.68708,37.31648c3.89333,0 6.91681,-1.19688 9.06942,-3.59059s3.22926,-5.79207 3.22926,-10.19471c0,-5.04382 -1.15656,-8.81618 -3.46974,-11.31677s-5.87451,-3.75088 -10.68406,-3.75088l-7.69527,0l0,28.85295l9.55038,0zm53.72947,-37.31648c10.39754,0 15.59666,3.76146 15.59666,11.28471c0,4.31736 -2.22153,7.52293 -6.66465,9.61765c3.02314,0.81218 5.27916,2.23347 6.76771,4.26382s2.233,4.47766 2.233,7.34147c0,4.10353 -1.59175,7.34147 -4.77519,9.71383s-7.36341,3.55853 -12.53917,3.55853l-23.77288,0l0,-45.78001l23.15451,0zm-1.37416,18.53c4.35161,0 6.52724,-1.81665 6.52724,-5.45c0,-3.50499 -2.42765,-5.25765 -7.28302,-5.25765l-10.23746,0l0,10.70765l10.99324,0zm0.61837,19.42765c5.26748,0 7.90139,-2.009 7.90139,-6.02706c0,-4.36 -2.56507,-6.54 -7.69527,-6.54l-11.81773,0l0,12.56706l11.61161,0z" id="svg_28"/>
  </g>
  <g fill="#000000" id="svg_29">
   <path stroke="null" d="m139.07514,86.62l1.08042,0l0,4c0,1.02 0.28811,1.48 0.84633,1.48s0.95437,-0.58 0.95437,-2.24c0,-3.32 -2.16083,-5.3 -4.53774,-5.3c-2.50296,0 -4.78984,2.2 -4.78984,5.52c0,3.18 2.44894,5.36 4.69981,5.36c1.62062,0 2.26887,-0.5 2.95314,-1.06l1.47657,0.7c-0.91835,1.3 -2.46695,2.12 -4.33967,2.12c-3.16922,0 -6.51851,-2.96 -6.51851,-7.12c0,-4.32 3.34929,-7.28 6.51851,-7.28c3.20523,0 6.26641,2.74 6.26641,7.08c0,2.62 -1.20646,3.8 -2.66502,3.8c-1.17045,0 -1.76468,-0.68 -1.85471,-1.42c-0.2521,0.74 -0.90035,1.42 -2.01678,1.42c-1.38653,0 -3.00716,-1.14 -3.00716,-3.64c0,-2.44 1.63863,-3.58 3.00716,-3.58c0.59423,0 1.45856,0.34 1.76468,0.8l0.16206,-0.64zm-1.89073,5.38c0.82832,0 1.44055,-0.78 1.44055,-1.98c0,-1.14 -0.61224,-1.88 -1.44055,-1.88c-0.84633,0 -1.45856,0.74 -1.45856,1.88c0,1.2 0.61224,1.98 1.45856,1.98zm19.64195,2.96l5.34806,0l0,2.04l-7.32882,0l0,-14l1.98076,0l0,11.96zm23.83756,-11.96l1.98076,0l0,8.92c0,3.42 -2.10681,5.38 -4.69981,5.38s-4.69981,-1.96 -4.69981,-5.38l0,-8.92l1.98076,0l0,8.92c0,2.38 1.31451,3.3 2.71905,3.3s2.71905,-0.92 2.71905,-3.3l0,-8.92zm15.39232,11.96l5.34806,0l0,2.04l-7.32882,0l0,-14l1.98076,0l0,11.96zm23.83756,-11.96l1.98076,0l0,8.92c0,3.42 -2.10681,5.38 -4.69981,5.38s-4.69981,-1.96 -4.69981,-5.38l0,-8.92l1.98076,0l0,8.92c0,2.38 1.31451,3.3 2.71905,3.3s2.71905,-0.92 2.71905,-3.3l0,-8.92zm15.39232,11.96l5.34806,0l0,2.04l-7.32882,0l0,-14l1.98076,0l0,11.96zm18.39947,0l5.70819,0l0,2.04l-6.06833,0l-1.62062,0l0,-14l1.98076,0l5.54613,0l0,2.04l-5.54613,0l0,3.92l4.26764,0l0,2l-4.26764,0l0,4zm30.15799,-11.96l0,14l-2.03478,0l0,-9.06l-3.78145,9.06l-1.67464,0l-3.76345,-9.04l0,9.04l-2.03478,0l0,-14l1.96275,0l4.6818,11.02l4.6818,-11.02l1.96275,0zm17.64318,-0.2c3.3853,0 6.48249,2.96 6.48249,7.2s-3.09719,7.2 -6.48249,7.2s-6.48249,-2.96 -6.48249,-7.2s3.09719,-7.2 6.48249,-7.2zm0,12.32c2.32289,0 4.4297,-2.12 4.4297,-5.12s-2.10681,-5.12 -4.4297,-5.12s-4.4297,2.12 -4.4297,5.12s2.10681,5.12 4.4297,5.12zm26.19647,-12.12l1.98076,0l0,14l-1.51258,0l-7.04071,-9.98l0,9.98l-1.98076,0l0,-14l1.53059,0l7.0227,10l0,-10z" id="svg_30"/>
  </g>
  <polyline stroke-linecap="round" fill="none" id="svg_31" points="247,321.7544860839844 246,321.7544860839844 246,321.7544860839844 " stroke="null"/>
  <path fill="none" d="m198,270.75449c13,9 29.18257,16.54752 47,24c29.31915,12.26328 55.18683,24.66086 79,38c19.15414,10.72937 29,16 33,18l0,0l0,0l-1,0" id="svg_32" stroke="null"/>
  <polyline stroke-linecap="round" fill="none" id="svg_33" points="219,320.7544860839844 218,320.7544860839844 " stroke="null"/>
  <path fill="none" d="m-18,266.75449c18,-266.75449 18,-266.75449 18,-266.75449l-18,266.75449l0,0l-1,0" id="svg_34" stroke="null"/>
  <polyline stroke-linecap="round" fill="none" id="svg_35" points="-629,73.75448608398438 -630,73.75448608398438 -630,73.75448608398438 " stroke="null"/>
  <polyline stroke-linecap="round" fill="none" id="svg_36" points="65,26.754486083984375 64,26.754486083984375 64,26.754486083984375 " stroke="null"/>
 </g>

</svg>