<svg width="159" height="130" viewBox="0 0 159 130" fill="none" xmlns="http://www.w3.org/2000/svg">
<path d="M10.8994 5H57.3994V38H10.8994V5Z" stroke="white" stroke-width="10"/>
<path d="M100.899 5H147.399V38H100.899V5Z" stroke="white" stroke-width="10"/>
<path d="M59.6494 22.014H96.6494" stroke="white" stroke-width="9"/>
<path d="M61.8694 74C59.2294 74 57.0694 73.16 55.3894 71.48C53.7094 69.68 52.8694 67.52 52.8694 65C52.8694 62.48 53.7094 60.38 55.3894 58.7C57.0694 56.9 59.2294 56 61.8694 56C64.3894 56 66.4894 56.9 68.1694 58.7C69.8494 60.38 70.6894 62.48 70.6894 65C70.6894 67.52 69.8494 69.68 68.1694 71.48C66.4894 73.16 64.3894 74 61.8694 74Z" fill="white"/>
<path d="M96.4294 74C93.9094 74 91.8094 73.16 90.1294 71.48C88.4494 69.68 87.6094 67.52 87.6094 65C87.6094 62.48 88.4494 60.38 90.1294 58.7C91.8094 56.9 93.9094 56 96.4294 56C99.0694 56 101.229 56.9 102.909 58.7C104.589 60.38 105.429 62.48 105.429 65C105.429 67.52 104.589 69.68 102.909 71.48C101.229 73.16 99.0694 74 96.4294 74Z" fill="white"/>
<path d="M0 92.8894H5.04L5.55882 98.0777H5.78118C7.51059 96.3482 9.31412 94.9153 11.1918 93.7788C13.1188 92.5929 15.3424 92 17.8624 92C21.6671 92 24.4341 93.1859 26.1635 95.5576C27.9424 97.9294 28.8318 101.438 28.8318 106.082V128.911H22.7541V106.898C22.7541 103.488 22.2106 101.042 21.1235 99.56C20.0365 98.0282 18.3071 97.2624 15.9353 97.2624C14.0576 97.2624 12.4024 97.7318 10.9694 98.6706C9.53647 99.6094 7.90588 100.993 6.07765 102.821V128.911H0V92.8894Z" fill="white" fill-opacity="0.2"/>
<path d="M48.8353 129.8C45.8211 129.8 43.3011 128.911 41.2753 127.132C39.2988 125.353 38.3105 122.833 38.3105 119.572C38.3105 115.619 40.0647 112.605 43.5729 110.529C47.0811 108.405 52.6894 106.922 60.3976 106.082C60.3976 104.946 60.2741 103.834 60.027 102.747C59.8294 101.66 59.4588 100.696 58.9153 99.8565C58.3717 99.0165 57.6058 98.3494 56.6176 97.8553C55.6788 97.3118 54.4682 97.04 52.9858 97.04C50.9105 97.04 48.9588 97.4353 47.1305 98.2259C45.3023 99.0165 43.6717 99.9059 42.2388 100.894L39.867 96.6694C41.547 95.5824 43.5976 94.5447 46.0188 93.5565C48.44 92.5188 51.1082 92 54.0235 92C58.4211 92 61.6082 93.3588 63.5847 96.0765C65.5611 98.7447 66.5494 102.327 66.5494 106.824V128.911H61.5094L60.9905 124.612H60.7682C59.0388 126.045 57.1858 127.28 55.2094 128.318C53.2329 129.306 51.1082 129.8 48.8353 129.8ZM50.6141 124.908C52.3435 124.908 53.9741 124.513 55.5058 123.722C57.0376 122.882 58.6682 121.672 60.3976 120.091V110.085C57.3835 110.48 54.8388 110.949 52.7635 111.493C50.7376 112.036 49.0823 112.679 47.7976 113.42C46.5623 114.161 45.6482 115.026 45.0553 116.014C44.5117 116.953 44.24 117.991 44.24 119.127C44.24 121.202 44.8576 122.685 46.0929 123.574C47.3282 124.464 48.8353 124.908 50.6141 124.908Z" fill="white" fill-opacity="0.2"/>
<path d="M77.8821 92.8894H83.9597V128.911H77.8821V92.8894Z" fill="white" fill-opacity="0.2"/>
<path d="M90.9343 92.8894H97.2343L104.053 113.346L105.684 118.682C106.277 120.461 106.845 122.215 107.388 123.945H107.685C108.228 122.215 108.772 120.461 109.315 118.682L110.946 113.346L117.765 92.8894H123.768L111.02 128.911H103.905L90.9343 92.8894Z" fill="white" fill-opacity="0.2"/>
<path d="M145.032 129.8C142.61 129.8 140.338 129.38 138.213 128.54C136.138 127.651 134.309 126.415 132.728 124.834C131.196 123.204 129.986 121.227 129.096 118.905C128.207 116.582 127.762 113.939 127.762 110.974C127.762 108.009 128.207 105.366 129.096 103.044C130.035 100.672 131.246 98.6706 132.728 97.04C134.26 95.4094 135.989 94.1741 137.916 93.3341C139.843 92.4447 141.845 92 143.92 92C146.193 92 148.219 92.3953 149.998 93.1859C151.826 93.9765 153.333 95.1129 154.519 96.5953C155.754 98.0776 156.693 99.8565 157.335 101.932C157.978 104.007 158.299 106.329 158.299 108.899C158.299 109.541 158.274 110.184 158.225 110.826C158.225 111.419 158.175 111.938 158.076 112.382H133.766C134.013 116.236 135.199 119.3 137.323 121.573C139.498 123.796 142.314 124.908 145.773 124.908C147.502 124.908 149.083 124.661 150.516 124.167C151.999 123.624 153.407 122.932 154.741 122.092L156.89 126.094C155.309 127.082 153.555 127.947 151.628 128.688C149.701 129.429 147.502 129.8 145.032 129.8ZM152.962 108.009C152.962 104.353 152.172 101.586 150.59 99.7082C149.059 97.7812 146.885 96.8176 144.068 96.8176C142.783 96.8176 141.548 97.0647 140.362 97.5588C139.226 98.0529 138.188 98.7941 137.249 99.7824C136.31 100.721 135.52 101.882 134.878 103.266C134.285 104.649 133.889 106.231 133.692 108.009H152.962Z" fill="white" fill-opacity="0.2"/>
</svg>
