<svg xmlns="http://www.w3.org/2000/svg" xmlns:xlink="http://www.w3.org/1999/xlink" contentStyleType="text/css" data-diagram-type="MINDMAP" height="359px" preserveAspectRatio="none" style="width:797px;height:359px;background:#FFFFFF;" version="1.1" viewBox="0 0 797 359" width="797px" zoomAndPan="magnify"><defs/><g><rect fill="#F1F1F1" height="36.2969" rx="12.5" ry="12.5" style="stroke:#181818;stroke-width:1.5;" width="117.9996" x="289.9991" y="160.7422"/><text fill="#000000" font-family="sans-serif" font-size="14" lengthAdjust="spacing" textLength="97.9996" x="299.9991" y="183.7373">&#26550;&#26500;&#24072;&#24517;&#22791;&#25216;&#33021;</text><rect fill="#F1F1F1" height="36.2969" rx="12.5" ry="12.5" style="stroke:#181818;stroke-width:1.5;" width="173.9993" x="457.9987" y="20"/><text fill="#000000" font-family="sans-serif" font-size="14" lengthAdjust="spacing" textLength="153.9993" x="467.9987" y="42.9951">&#33267;&#23569;&#25484;&#25569;&#19968;&#31181;&#28040;&#24687;&#20013;&#38388;&#20214;</text><path d="M407.9987,178.8906 L417.9987,178.8906 C432.9987,178.8906 432.9987,38.1484 447.9987,38.1484 L457.9987,38.1484" fill="none" style="stroke:#181818;stroke-width:1;"/><rect fill="#F1F1F1" height="36.2969" rx="12.5" ry="12.5" style="stroke:#181818;stroke-width:1.5;" width="327.9987" x="457.9987" y="76.2969"/><text fill="#000000" font-family="sans-serif" font-size="14" lengthAdjust="spacing" textLength="307.9987" x="467.9987" y="99.292">&#23545;&#20110;&#32447;&#31243;&#27744;&#12289;&#36830;&#25509;&#27744;&#12289;&#23545;&#35937;&#27744;&#26377;&#28145;&#20837;&#30340;&#29702;&#35299;&#21644;&#25484;&#25569;</text><path d="M407.9987,178.8906 L417.9987,178.8906 C432.9987,178.8906 432.9987,94.4453 447.9987,94.4453 L457.9987,94.4453" fill="none" style="stroke:#181818;stroke-width:1;"/><rect fill="#F1F1F1" height="36.2969" rx="12.5" ry="12.5" style="stroke:#181818;stroke-width:1.5;" width="299.9988" x="457.9987" y="132.5938"/><text fill="#000000" font-family="sans-serif" font-size="14" lengthAdjust="spacing" textLength="279.9988" x="467.9987" y="155.5889">&#23545;&#20110;&#21508;&#31181;&#25968;&#25454;&#32467;&#26500;&#21644;&#31639;&#27861;&#20855;&#26377;&#36739;&#20026;&#20840;&#38754;&#30340;&#25484;&#25569;</text><path d="M407.9987,178.8906 L417.9987,178.8906 C432.9987,178.8906 432.9987,150.7422 447.9987,150.7422 L457.9987,150.7422" fill="none" style="stroke:#181818;stroke-width:1;"/><rect fill="#F1F1F1" height="36.2969" rx="12.5" ry="12.5" style="stroke:#181818;stroke-width:1.5;" width="201.9992" x="457.9987" y="188.8906"/><text fill="#000000" font-family="sans-serif" font-size="14" lengthAdjust="spacing" textLength="181.9992" x="467.9987" y="211.8857">&#23545;&#20110;&#24182;&#21457;&#32534;&#31243;&#20855;&#26377;&#28145;&#20837;&#30340;&#29702;&#35299;</text><path d="M407.9987,178.8906 L417.9987,178.8906 C432.9987,178.8906 432.9987,207.0391 447.9987,207.0391 L457.9987,207.0391" fill="none" style="stroke:#181818;stroke-width:1;"/><rect fill="#F1F1F1" height="36.2969" rx="12.5" ry="12.5" style="stroke:#181818;stroke-width:1.5;" width="145.9995" x="457.9987" y="245.1875"/><text fill="#000000" font-family="sans-serif" font-size="14" lengthAdjust="spacing" textLength="125.9995" x="467.9987" y="268.1826">&#25484;&#25569;&#19968;&#31181;&#23481;&#22120;&#21270;&#25216;&#26415;</text><path d="M407.9987,178.8906 L417.9987,178.8906 C432.9987,178.8906 432.9987,263.3359 447.9987,263.3359 L457.9987,263.3359" fill="none" style="stroke:#181818;stroke-width:1;"/><rect fill="#F1F1F1" height="36.2969" rx="12.5" ry="12.5" style="stroke:#181818;stroke-width:1.5;" width="169.7202" x="457.9987" y="301.4844"/><text fill="#000000" font-family="sans-serif" font-size="14" lengthAdjust="spacing" textLength="149.7202" x="467.9987" y="324.4795">&#29087;&#24713;Linux&#26381;&#21153;&#22120;&#30340;&#20351;&#29992;</text><path d="M407.9987,178.8906 L417.9987,178.8906 C432.9987,178.8906 432.9987,319.6328 447.9987,319.6328 L457.9987,319.6328" fill="none" style="stroke:#181818;stroke-width:1;"/><rect fill="#F1F1F1" height="36.2969" rx="12.5" ry="12.5" style="stroke:#181818;stroke-width:1.5;" width="229.9991" x="10" y="20"/><text fill="#000000" font-family="sans-serif" font-size="14" lengthAdjust="spacing" textLength="209.9991" x="20" y="42.9951">&#28145;&#20837;&#25484;&#25569;&#19968;&#38376;&#38754;&#21521;&#23545;&#35937;&#30340;&#32534;&#31243;&#35821;&#35328;</text><path d="M289.9991,178.8906 L279.9991,178.8906 C264.9991,178.8906 264.9991,38.1484 249.9991,38.1484 L239.9991,38.1484" fill="none" style="stroke:#181818;stroke-width:1;"/><rect fill="#F1F1F1" height="36.2969" rx="12.5" ry="12.5" style="stroke:#181818;stroke-width:1.5;" width="159.9994" x="79.9997" y="76.2969"/><text fill="#000000" font-family="sans-serif" font-size="14" lengthAdjust="spacing" textLength="139.9994" x="89.9997" y="99.292">&#29087;&#32451;&#25484;&#25569;&#21508;&#31181;&#35774;&#35745;&#27169;&#24335;</text><path d="M289.9991,178.8906 L279.9991,178.8906 C264.9991,178.8906 264.9991,94.4453 249.9991,94.4453 L239.9991,94.4453" fill="none" style="stroke:#181818;stroke-width:1;"/><rect fill="#F1F1F1" height="36.2969" rx="12.5" ry="12.5" style="stroke:#181818;stroke-width:1.5;" width="187.9993" x="51.9998" y="132.5938"/><text fill="#000000" font-family="sans-serif" font-size="14" lengthAdjust="spacing" textLength="167.9993" x="61.9998" y="155.5889">&#29087;&#32451;&#25484;&#25569;&#19968;&#31181;&#20851;&#31995;&#22411;&#25968;&#25454;&#24211;</text><path d="M289.9991,178.8906 L279.9991,178.8906 C264.9991,178.8906 264.9991,150.7422 249.9991,150.7422 L239.9991,150.7422" fill="none" style="stroke:#181818;stroke-width:1;"/><rect fill="#F1F1F1" height="36.2969" rx="12.5" ry="12.5" style="stroke:#181818;stroke-width:1.5;" width="176.1254" x="63.8737" y="188.8906"/><text fill="#000000" font-family="sans-serif" font-size="14" lengthAdjust="spacing" textLength="156.1254" x="73.8737" y="211.8857">&#33021;&#22815;&#29087;&#32451;&#32472;&#21046;&#21508;&#31181;UML&#22270;</text><path d="M289.9991,178.8906 L279.9991,178.8906 C264.9991,178.8906 264.9991,207.0391 249.9991,207.0391 L239.9991,207.0391" fill="none" style="stroke:#181818;stroke-width:1;"/><rect fill="#F1F1F1" height="36.2969" rx="12.5" ry="12.5" style="stroke:#181818;stroke-width:1.5;" width="187.9993" x="51.9998" y="245.1875"/><text fill="#000000" font-family="sans-serif" font-size="14" lengthAdjust="spacing" textLength="167.9993" x="61.9998" y="268.1826">&#33267;&#23569;&#25484;&#25569;&#19968;&#31181;&#32531;&#23384;&#22411;&#25968;&#25454;&#24211;</text><path d="M289.9991,178.8906 L279.9991,178.8906 C264.9991,178.8906 264.9991,263.3359 249.9991,263.3359 L239.9991,263.3359" fill="none" style="stroke:#181818;stroke-width:1;"/><rect fill="#F1F1F1" height="36.2969" rx="12.5" ry="12.5" style="stroke:#181818;stroke-width:1.5;" width="187.9993" x="51.9998" y="301.4844"/><text fill="#000000" font-family="sans-serif" font-size="14" lengthAdjust="spacing" textLength="167.9993" x="61.9998" y="324.4795">&#33267;&#23569;&#25484;&#25569;&#19968;&#31181;&#25991;&#26723;&#22411;&#25968;&#25454;&#24211;</text><path d="M289.9991,178.8906 L279.9991,178.8906 C264.9991,178.8906 264.9991,319.6328 249.9991,319.6328 L239.9991,319.6328" fill="none" style="stroke:#181818;stroke-width:1;"/><!--SRC=[RP9TJnf158RlzrVCfOPW56Djk3AnhGc1nBJA_IXRiWaCpR9BsZii8AXyIWNRKknMZNi3I6YGB-77b3Ep_8lETjgqIk_cutdVC-Szin7LiAg55H88upUI0z5wbzQJqCl090LNQNeSjnBtajE9w5qRKjSqdwK5OzgBpwhcxCitA9QWrRVQ1lkKPACACq-iLiCouxQ07LwmOK88e9XaDpchERQQ1ZKD61KU4zoI4v3giCuGwYVqx9RccZ0esnn_0LnT29eDpo7J5NwxFYzy7lyYqXsuBVthn4PbQ9pFESrnj9AcnkK3pk7u7zVDq8FMjDUOLRzFXrqRufrF1tascF2sQVlhZ_Y1DQdJ_BLOYrpucjQEH7PsHiL3w-OIJhF2-g-BQ4YyWGtBzWXEiwnPfPqpIDrn2skScFO6aB9JvqPp-duN2YKn0Y5uLDD67oJTxCD74x8LFc5QQzdNF63w_iYh4FqjhUNWsE00rq_l9-o3AMt8_8ly_YRITWWJZSUFOh8QLI84hIovbbrhIww57Lr67apGyZfQMNUlhhbNdw3TdKraNozA2rlRNXIDwEg-Z09AL5ELFLtZ-aN9WsCOlTI9feHbDzfICGxvVNyEq7CIKzG82Sj4apn-dnkzqlUu6cioylkaP_9hh8SqJkr70We9kdd55ywdaXUJe8w3t8_eeP2q6U5kwZkn-ma0]--></g></svg>