<svg xmlns="http://www.w3.org/2000/svg" xmlns:xlink="http://www.w3.org/1999/xlink" contentStyleType="text/css" data-diagram-type="MINDMAP" height="416px" preserveAspectRatio="none" style="width:728px;height:416px;background:#FFFFFF;" version="1.1" viewBox="0 0 728 416" width="728px" zoomAndPan="magnify"><defs/><g><rect fill="#F1F1F1" height="36.2969" rx="12.5" ry="12.5" style="stroke:#181818;stroke-width:1.5;" width="128.0348" x="10" y="188.8906"/><text fill="#000000" font-family="sans-serif" font-size="14" lengthAdjust="spacing" textLength="108.0348" x="20" y="211.8857">OSI&#19971;&#23618;&#32593;&#32476;&#27169;&#22411;</text><rect fill="#D3D3D3" height="36.2969" rx="12.5" ry="12.5" style="stroke:#181818;stroke-width:1.5;" width="117.9518" x="188.0348" y="20"/><text fill="#000000" font-family="sans-serif" font-size="14" lengthAdjust="spacing" textLength="97.9518" x="198.0348" y="42.9951">&#31532;&#19971;&#23618; - &#24212;&#29992;&#23618;</text><text fill="#000000" font-family="sans-serif" font-size="14" lengthAdjust="spacing" textLength="249.9216" x="358.9866" y="42.9951">HTTP&#12289;SMTP&#12289;FTP&#12289;POP3&#12289;Telnet&#31561;</text><path d="M305.9866,38.1484 L315.9866,38.1484 C330.9866,38.1484 330.9866,38.1484 345.9866,38.1484 L355.9866,38.1484" fill="none" style="stroke:#181818;stroke-width:1;"/><path d="M138.0348,207.0391 L148.0348,207.0391 C163.0348,207.0391 163.0348,38.1484 178.0348,38.1484 L188.0348,38.1484" fill="none" style="stroke:#181818;stroke-width:1;"/><rect fill="#F1F1F1" height="36.2969" rx="12.5" ry="12.5" style="stroke:#181818;stroke-width:1.5;" width="117.9518" x="188.0348" y="76.2969"/><text fill="#000000" font-family="sans-serif" font-size="14" lengthAdjust="spacing" textLength="97.9518" x="198.0348" y="99.292">&#31532;&#20845;&#23618; - &#34920;&#31034;&#23618;</text><text fill="#000000" font-family="sans-serif" font-size="14" lengthAdjust="spacing" textLength="76.0908" x="358.9866" y="99.292">LPP&#12289;NBSP</text><path d="M305.9866,94.4453 L315.9866,94.4453 C330.9866,94.4453 330.9866,94.4453 345.9866,94.4453 L355.9866,94.4453" fill="none" style="stroke:#181818;stroke-width:1;"/><path d="M138.0348,207.0391 L148.0348,207.0391 C163.0348,207.0391 163.0348,94.4453 178.0348,94.4453 L188.0348,94.4453" fill="none" style="stroke:#181818;stroke-width:1;"/><rect fill="#F1F1F1" height="36.2969" rx="12.5" ry="12.5" style="stroke:#181818;stroke-width:1.5;" width="117.9518" x="188.0348" y="132.5938"/><text fill="#000000" font-family="sans-serif" font-size="14" lengthAdjust="spacing" textLength="97.9518" x="198.0348" y="155.5889">&#31532;&#20116;&#23618; - &#20250;&#35805;&#23618;</text><text fill="#000000" font-family="sans-serif" font-size="14" lengthAdjust="spacing" textLength="129.4109" x="358.9866" y="155.5889">SSL&#12289;TSL&#12289;LDAP&#31561;</text><path d="M305.9866,150.7422 L315.9866,150.7422 C330.9866,150.7422 330.9866,150.7422 345.9866,150.7422 L355.9866,150.7422" fill="none" style="stroke:#181818;stroke-width:1;"/><path d="M138.0348,207.0391 L148.0348,207.0391 C163.0348,207.0391 163.0348,150.7422 178.0348,150.7422 L188.0348,150.7422" fill="none" style="stroke:#181818;stroke-width:1;"/><rect fill="#D3D3D3" height="36.2969" rx="12.5" ry="12.5" style="stroke:#181818;stroke-width:1.5;" width="117.9518" x="188.0348" y="188.8906"/><text fill="#000000" font-family="sans-serif" font-size="14" lengthAdjust="spacing" textLength="97.9518" x="198.0348" y="211.8857">&#31532;&#22235;&#23618; - &#20256;&#36755;&#23618;</text><text fill="#000000" font-family="sans-serif" font-size="14" lengthAdjust="spacing" textLength="70.2392" x="358.9866" y="211.8857">TCP&#12289;UDP</text><path d="M305.9866,207.0391 L315.9866,207.0391 C330.9866,207.0391 330.9866,207.0391 345.9866,207.0391 L355.9866,207.0391" fill="none" style="stroke:#181818;stroke-width:1;"/><path d="M138.0348,207.0391 L148.0348,207.0391 C163.0348,207.0391 163.0348,207.0391 178.0348,207.0391 L188.0348,207.0391" fill="none" style="stroke:#181818;stroke-width:1;"/><rect fill="#F1F1F1" height="36.2969" rx="12.5" ry="12.5" style="stroke:#181818;stroke-width:1.5;" width="117.9518" x="188.0348" y="245.1875"/><text fill="#000000" font-family="sans-serif" font-size="14" lengthAdjust="spacing" textLength="97.9518" x="198.0348" y="268.1826">&#31532;&#19977;&#23618; - &#32593;&#32476;&#23618;</text><text fill="#000000" font-family="sans-serif" font-size="14" lengthAdjust="spacing" textLength="197.196" x="358.9866" y="268.1826">IP&#12289;ICMP&#12289;RIP&#12289;IGMP&#12289;OSPF</text><path d="M305.9866,263.3359 L315.9866,263.3359 C330.9866,263.3359 330.9866,263.3359 345.9866,263.3359 L355.9866,263.3359" fill="none" style="stroke:#181818;stroke-width:1;"/><path d="M138.0348,207.0391 L148.0348,207.0391 C163.0348,207.0391 163.0348,263.3359 178.0348,263.3359 L188.0348,263.3359" fill="none" style="stroke:#181818;stroke-width:1;"/><rect fill="#F1F1F1" height="36.2969" rx="12.5" ry="12.5" style="stroke:#181818;stroke-width:1.5;" width="145.9517" x="188.0348" y="301.4844"/><text fill="#000000" font-family="sans-serif" font-size="14" lengthAdjust="spacing" textLength="125.9517" x="198.0348" y="324.4795">&#31532;&#20108;&#23618; - &#25968;&#25454;&#38142;&#36335;&#23618;</text><text fill="#000000" font-family="sans-serif" font-size="14" lengthAdjust="spacing" textLength="329.9767" x="386.9865" y="324.4795">&#20197;&#22826;&#32593;&#12289;&#32593;&#21345;&#12289;&#20132;&#25442;&#26426;&#12289;PPTP&#12289;L2TP&#12289;ARP&#12289;ATMP</text><path d="M333.9865,319.6328 L343.9865,319.6328 C358.9865,319.6328 358.9865,319.6328 373.9865,319.6328 L383.9865,319.6328" fill="none" style="stroke:#181818;stroke-width:1;"/><path d="M138.0348,207.0391 L148.0348,207.0391 C163.0348,207.0391 163.0348,319.6328 178.0348,319.6328 L188.0348,319.6328" fill="none" style="stroke:#181818;stroke-width:1;"/><rect fill="#F1F1F1" height="36.2969" rx="12.5" ry="12.5" style="stroke:#181818;stroke-width:1.5;" width="117.9518" x="188.0348" y="357.7813"/><text fill="#000000" font-family="sans-serif" font-size="14" lengthAdjust="spacing" textLength="97.9518" x="198.0348" y="380.7764">&#31532;&#19968;&#23618; - &#29289;&#29702;&#23618;</text><text fill="#000000" font-family="sans-serif" font-size="14" lengthAdjust="spacing" textLength="223.999" x="358.9866" y="380.7764">&#29289;&#29702;&#32447;&#36335;&#12289;&#20809;&#32447;&#12289;&#38598;&#32447;&#22120;&#12289;&#21452;&#32478;&#32447;&#31561;</text><path d="M305.9866,375.9297 L315.9866,375.9297 C330.9866,375.9297 330.9866,375.9297 345.9866,375.9297 L355.9866,375.9297" fill="none" style="stroke:#181818;stroke-width:1;"/><path d="M138.0348,207.0391 L148.0348,207.0391 C163.0348,207.0391 163.0348,375.9297 178.0348,375.9297 L188.0348,375.9297" fill="none" style="stroke:#181818;stroke-width:1;"/><!--SRC=[NL5DRzD04BtxLwp4fLNKgarKYdngIKX8P9DLxEI24DesIx3ah96pZjHRAIfIHACMDHmWfI8eI06r54vK3fGVWp_IVy6iDpKIbvbvu_VUZ6StEfoul6snPfiyKpAeQfI3onVXzxtur-juUX9DHk7fAoMJUNZBjbfFUSkbEuzGV7OcIMW9XVuW7aoW1bBcCRflclZFxdD3Jr8nYRYASv1CQZFAu_CUC8L5k7ykBMQZIJpsKmiD2z63kmQU4mD_88d1ptUpY_SfqJ0qOPj4hR29fVN_cuR3uOtwm-pgE5MRUJ6cNaYdNFOaJ_vvoYiBMZclYrIJe9I0ge6BwOO7KXkz-HRrlruVNyr-NAGEmVHJEFu2jY226FP7K0J-EEf_Z4vySI2St4dB9ccpbaHJ_xVPxdoptkVuw6NgAs7i_uPXe0ZtUr13SJqKpV3jH3GF3-BfAK1nd0qAppn_QWNRXF6whg4kTJkMmz3gSdObkxQSNJ0zYYg4ePLrjBgkvjRKt6rKD_D8V5vK5afOGnt7SxSfQbeTxbfR7WVzeb8XNO9g7kDMcwgev19YD_IR1hh7kfRhi3PbNAaqT1KPtXQe2QUeeIi5-eHuDWVMjjEqM4k5YSMbEuf6MCiZBV1ZdcqhUGVSt1s9_W80]--></g></svg>