<svg xmlns="http://www.w3.org/2000/svg" xmlns:xlink="http://www.w3.org/1999/xlink" contentStyleType="text/css" data-diagram-type="MINDMAP" height="134px" preserveAspectRatio="none" style="width:321px;height:134px;background:#FFFFFF;" version="1.1" viewBox="0 0 321 134" width="321px" zoomAndPan="magnify"><defs/><g><rect fill="#F1F1F1" height="36.2969" rx="12.5" ry="12.5" style="stroke:#181818;stroke-width:1.5;" width="75.9998" x="107.9999" y="48.1484"/><text fill="#000000" font-family="sans-serif" font-size="14" lengthAdjust="spacing" textLength="55.9998" x="117.9999" y="71.1436">&#21704;&#24076;&#31639;&#27861;</text><rect fill="#F1F1F1" height="36.2969" rx="12.5" ry="12.5" style="stroke:#181818;stroke-width:1.5;" width="75.9998" x="233.9996" y="48.1484"/><text fill="#000000" font-family="sans-serif" font-size="14" lengthAdjust="spacing" textLength="55.9998" x="243.9996" y="71.1436">&#21160;&#24577;&#21475;&#20196;</text><path d="M183.9996,66.2969 L193.9996,66.2969 C208.9996,66.2969 208.9996,66.2969 223.9996,66.2969 L233.9996,66.2969" fill="none" style="stroke:#181818;stroke-width:1;"/><rect fill="#F1F1F1" height="36.2969" rx="12.5" ry="12.5" style="stroke:#181818;stroke-width:1.5;" width="47.9999" x="10" y="20"/><text fill="#000000" font-family="sans-serif" font-size="14" lengthAdjust="spacing" textLength="27.9999" x="20" y="42.9951">&#26102;&#38047;</text><path d="M107.9999,66.2969 L97.9999,66.2969 C82.9999,66.2969 82.9999,38.1484 67.9999,38.1484 L57.9999,38.1484" fill="none" style="stroke:#181818;stroke-width:1;"/><rect fill="#F1F1F1" height="36.2969" rx="12.5" ry="12.5" style="stroke:#181818;stroke-width:1.5;" width="47.9999" x="10" y="76.2969"/><text fill="#000000" font-family="sans-serif" font-size="14" lengthAdjust="spacing" textLength="27.9999" x="20" y="99.292">&#23494;&#38053;</text><path d="M107.9999,66.2969 L97.9999,66.2969 C82.9999,66.2969 82.9999,94.4453 67.9999,94.4453 L57.9999,94.4453" fill="none" style="stroke:#181818;stroke-width:1;"/><!--SRC=[DOr1IyD048Nlyolcs59IsfHQoQbGjH0IADhcFcssOI6Po6Otu4ql8Y885UdHWmgUz228uDynAVqNRb5lR-QzxxrXeKdfJ7ASqIcqiBgxgZvlDg_h-lqU70VhzSTszR1JrTlbTlKCBPkvVgdFBwhRn- -l9nWAY_xXC4c9zImCi1Iga3bZj-rst7xRRKoDG9yOEmFi3hnUt-ljuMmwmftTXCPu4c2H6xKG6Cj2Apatsl9DyAaaF3QiPIOy72kYD0h_7tZ8fLGvPu8r-57euOcPMvgqm2Y40x4aasgRMkInvCIpYqVEFWJ4YQ74zh59KnZbjasT_Lu_]--></g></svg>